<?xml version="1.0" encoding="iso-8859-1"?>
<!-- Uploaded to: SVG Repo, www.svgrepo.com, Generator: SVG Repo Mixer Tools -->
<svg height="800px" width="800px" version="1.1" id="Layer_1" xmlns="http://www.w3.org/2000/svg" xmlns:xlink="http://www.w3.org/1999/xlink" 
	 viewBox="0 0 511.999 511.999" xml:space="preserve">
<path style="fill:#877E73;" d="M489.484,339.878c-4.887,1.293-8.065,5.896-8.093,10.951c-0.12,21.378-17.55,38.734-38.957,38.734
	h-126.2l46.502-71.866c3.339-5.161,1.863-12.052-3.298-15.391c-5.161-3.339-12.053-1.862-15.391,3.298l-54.327,83.96h-47.634
	v-44.522c0-6.147-4.983-11.13-11.13-11.13s-11.13,4.983-11.13,11.13v44.522h-47.633l-54.327-83.96
	c-3.339-5.161-10.23-6.637-15.391-3.298c-5.161,3.339-6.637,10.23-3.298,15.391l46.502,71.866h-13.968
	c-33.594,0-61.627,26.676-62.139,60.267c-0.522,34.189,27.138,62.168,61.21,62.168h98.504c0.279,0,0.552-0.023,0.823-0.058
	c0.279,0.021,0.558,0.059,0.837,0.059c3.65,0,7.225-1.793,9.355-5.084l61.529-95.091h140.604c33.755,0,61.217-27.462,61.217-61.217
	C503.652,343.472,496.939,337.904,489.484,339.878z M131.513,489.737c-21.272,0-39.174-16.75-39.677-38.017
	c-0.519-21.908,17.153-39.896,38.945-39.896h29.301l50.414,77.913H131.513z M219.826,463.177l-33.229-51.354h33.229V463.177z
	 M242.086,463.177v-51.354h33.229L242.086,463.177z"/>
<path style="fill:#9379AD;" d="M341.708,100.181L341.708,100.181c-5.585,56.245-53.038,100.174-110.752,100.174l0,0
	c-57.715,0-105.167-43.928-110.751-100.174h-0.001c0-0.001,0-0.002,0-0.003s0-0.002,0-0.003h0.001
	C125.789,43.928,173.241,0,230.956,0l0,0c57.715,0,105.167,43.928,110.751,100.174h0.001c0,0.001,0,0.002,0,0.003
	C341.708,100.177,341.708,100.179,341.708,100.181z"/>
<path style="fill:#FFC865;" d="M148.046,319.121c-9.066,2.385-18.581,3.661-28.395,3.661l0,0
	c-61.471,0-111.304-49.832-111.304-111.304l0,0c0-61.471,49.832-111.304,111.304-111.304l0,0c32.938,0,62.531,14.313,82.909,37.052
	L148.046,319.121z"/>
<path style="fill:#FF8365;" d="M259.351,137.225c20.379-22.739,49.971-37.052,82.909-37.052l0,0
	c61.471,0,111.304,49.832,111.304,111.304l0,0c0,61.471-49.832,111.304-111.304,111.304l0,0c-9.814,0-19.329-1.276-28.395-3.661
	L259.351,137.225z"/>
<path style="fill:#80BDA2;" d="M230.956,356.173L230.956,356.173c-61.472,0-111.304-49.832-111.304-111.304l0,0
	c0-61.471,49.832-111.304,111.304-111.304l0,0c61.471,0,111.304,49.832,111.304,111.304l0,0
	C342.26,306.341,292.427,356.173,230.956,356.173z"/>
<path style="fill:#FFFFFF;" d="M273.985,297.147c3.075,5.323,1.254,12.13-4.067,15.206c-1.555,0.899-3.155,1.752-4.757,2.534
	c-1.574,0.77-3.241,1.135-4.883,1.135c-4.117,0-8.075-2.294-10.006-6.242c-2.701-5.522-0.415-12.188,5.107-14.889
	c1.143-0.559,2.287-1.169,3.4-1.813C264.101,290.003,270.909,291.824,273.985,297.147z M230.956,166.955
	c-6.147,0-11.13,4.983-11.13,11.13c0,6.147,4.983,11.13,11.13,11.13c30.687,0,55.652,24.966,55.652,55.652
	c0,6.147,4.983,11.13,11.13,11.13c6.147,0,11.13-4.983,11.13-11.13C308.869,201.907,273.917,166.955,230.956,166.955z
	 M343.179,133.564c-6.147,0-11.13,4.983-11.13,11.13c0,6.147,4.983,11.13,11.13,11.13c30.687,0,55.652,24.966,55.652,55.652
	c0,6.147,4.983,11.13,11.13,11.13c6.147,0,11.13-4.983,11.13-11.13C421.092,168.516,386.14,133.564,343.179,133.564z
	 M370.999,259.69c-1.11,0.641-2.253,1.251-3.4,1.812c-5.521,2.702-7.807,9.368-5.104,14.89c1.931,3.947,5.889,6.24,10.005,6.24
	c1.643,0,3.31-0.365,4.885-1.136c1.605-0.786,3.206-1.638,4.756-2.535c5.321-3.078,7.141-9.885,4.065-15.208
	C383.129,258.432,376.322,256.613,370.999,259.69z"/>
</svg>