<?xml version="1.0" encoding="iso-8859-1"?>
<!-- Uploaded to: SVG Repo, www.svgrepo.com, Generator: SVG Repo Mixer Tools -->
<svg fill="#000000" height="800px" width="800px" version="1.1" id="Layer_1" xmlns="http://www.w3.org/2000/svg" xmlns:xlink="http://www.w3.org/1999/xlink" 
	 viewBox="0 0 512 512" xml:space="preserve">
<g>
	<g>
		<path d="M373.28,299.542c74.831-8.519,133.154-72.212,133.154-149.281C506.435,67.408,439.032,0,356.174,0
			S205.913,67.408,205.913,150.261c0,74.603,54.652,136.673,126.024,148.296c-2.716,6.231-4.154,13.006-4.154,20.008
			c0,13.385,5.207,25.962,14.674,35.424l19.565,19.554c6.5,6.511,6.5,17.103,0,23.609l-19.565,19.56
			c-9.468,9.462-14.674,22.038-14.674,35.418c0,13.385,5.207,25.962,14.674,35.424l19.565,19.56
			c3.261,3.256,7.533,4.886,11.804,4.886s8.544-1.631,11.804-4.892c6.521-6.521,6.521-17.092,0-23.614l-19.565-19.56
			c-3.152-3.152-4.892-7.343-4.892-11.804c0-4.457,1.74-8.647,4.892-11.799l19.565-19.565c19.522-19.527,19.522-51.305,0-70.837
			l-19.565-19.56c-3.152-3.152-4.892-7.343-4.892-11.804c0-4.457,1.74-8.647,4.892-11.804L373.28,299.542z M356.174,100.174
			c-27.619,0-50.087,22.468-50.087,50.087c0,9.223-7.479,16.696-16.696,16.696s-16.696-7.473-16.696-16.696
			c0-46.032,37.446-83.478,83.478-83.478c9.217,0,16.696,7.473,16.696,16.696S365.391,100.174,356.174,100.174z"/>
	</g>
</g>
<g>
	<g>
		<path d="M172.921,366.337c39.438-4.49,74.28-24.321,98.429-53.347c-58.652-30.701-98.828-92.066-98.828-162.729
			c0-28.391,6.666-55.193,18.218-79.216c-11.225-2.687-22.876-4.262-34.914-4.262c-82.858,0-150.261,67.408-150.261,150.261
			c0,74.603,54.652,136.673,126.024,148.296c-2.716,6.231-4.154,13.006-4.154,20.008c0,13.385,5.207,25.962,14.674,35.424
			l19.565,19.554c6.5,6.511,6.5,17.103,0,23.609l-19.565,19.56c-6.521,6.521-6.521,17.092,0,23.614
			c3.261,3.261,7.533,4.892,11.804,4.892s8.544-1.631,11.804-4.886l19.565-19.565c19.522-19.527,19.522-51.305,0-70.837
			l-19.565-19.56c-3.152-3.152-4.892-7.343-4.892-11.804c0-4.457,1.74-8.647,4.892-11.804L172.921,366.337z M122.435,178.087
			c-27.619,0-50.087,22.468-50.087,50.087c0,9.223-7.479,16.696-16.696,16.696c-9.217,0-16.696-7.473-16.696-16.696
			c0-46.032,37.446-83.478,83.478-83.478c9.217,0,16.696,7.473,16.696,16.696C139.13,170.614,131.652,178.087,122.435,178.087z"/>
	</g>
</g>
</svg>